<svg width="244" height="211" viewBox="0 0 244 211" fill="none" xmlns="http://www.w3.org/2000/svg">
<line x1="181" y1="46" x2="236" y2="46" stroke="#AAAAAA" stroke-width="10"/>
<line x1="156" y1="61" x2="156" y2="161" stroke="#747474" stroke-width="10"/>
<line x1="156" y1="61" x2="156" y2="161" stroke="#747474" stroke-width="10"/>
<line x1="151" y1="86" x2="231" y2="86" stroke="#AAAAAA" stroke-width="10"/>
<line x1="20" y1="106" x2="82" y2="106" stroke="#AAAAAA" stroke-width="10"/>
<line x1="25" y1="89" x2="25" y2="154" stroke="#747474" stroke-width="10"/>
<line x1="8" y1="126" x2="80" y2="126" stroke="#AAAAAA" stroke-width="10"/>
<line x1="45" y1="91" x2="45" y2="151" stroke="#747474" stroke-width="10"/>
<line x1="65" y1="91" x2="65" y2="187" stroke="#747474" stroke-width="10"/>
<line x1="18" y1="146" x2="152" y2="146" stroke="#AAAAAA" stroke-width="10"/>
<line x1="85" y1="108" x2="85" y2="191" stroke="#747474" stroke-width="10"/>
<line x1="105" y1="110" x2="105" y2="202" stroke="#747474" stroke-width="10"/>
<line x1="125" y1="108" x2="125" y2="196" stroke="#747474" stroke-width="10"/>
<line x1="176" y1="51" x2="176" y2="146" stroke="#747474" stroke-width="10"/>
<line x1="196" y1="19" x2="196" y2="126" stroke="#747474" stroke-width="10"/>
<line x1="216" y1="6" x2="216" y2="103" stroke="#747474" stroke-width="10"/>
<line x1="109" y1="106" x2="214" y2="106" stroke="#AAAAAA" stroke-width="10"/>
<line x1="110" y1="126" x2="171" y2="126" stroke="#AAAAAA" stroke-width="10"/>
<line x1="147" y1="66" x2="221" y2="66" stroke="#AAAAAA" stroke-width="10"/>
<line x1="189" y1="26" x2="236" y2="26" stroke="#AAAAAA" stroke-width="10"/>
<line x1="40" y1="166" x2="155" y2="166" stroke="#AAAAAA" stroke-width="10"/>
<line x1="60" y1="186" x2="110" y2="186" stroke="#AAAAAA" stroke-width="10"/>
<line x1="5" y1="81" x2="5" y2="134" stroke="black" stroke-width="10"/>
<line x1="239" y1="10" x2="239" y2="83" stroke="black" stroke-width="10"/>
<line y1="86" x2="63.0079" y2="86" stroke="black" stroke-width="10"/>
<line x1="207" y1="6" x2="244" y2="6" stroke="black" stroke-width="10"/>
<line x1="77" y1="206" x2="116" y2="206" stroke="black" stroke-width="10"/>
<line x1="3.53553" y1="130.464" x2="80.5355" y2="207.464" stroke="black" stroke-width="10"/>
<line x1="59.5355" y1="84.4645" x2="98.5355" y2="123.464" stroke="black" stroke-width="10"/>
<line x1="91.4645" y1="123.464" x2="210.464" y2="4.46447" stroke="black" stroke-width="10"/>
<line x1="112.464" y1="207.464" x2="240.464" y2="79.4645" stroke="black" stroke-width="10"/>
</svg>
