<svg width="1191" height="380" viewBox="0 0 1191 380" fill="none" xmlns="http://www.w3.org/2000/svg">
<g clip-path="url(#clip0_0_1)">
<path d="M190 380C294.934 380 380 294.934 380 190C380 85.0659 294.934 0 190 0C85.0659 0 0 85.0659 0 190C0 294.934 85.0659 380 190 380Z" fill="#D9D9D9"/>
<path d="M248 135H303" stroke="#AAAAAA" stroke-width="10"/>
<path d="M223 150V250" stroke="#747474" stroke-width="10"/>
<path d="M223 150V250" stroke="#747474" stroke-width="10"/>
<path d="M218 175H298" stroke="#AAAAAA" stroke-width="10"/>
<path d="M87 195H149" stroke="#AAAAAA" stroke-width="10"/>
<path d="M92 178V243" stroke="#747474" stroke-width="10"/>
<path d="M75 215H147" stroke="#AAAAAA" stroke-width="10"/>
<path d="M112 180V240" stroke="#747474" stroke-width="10"/>
<path d="M132 180V276" stroke="#747474" stroke-width="10"/>
<path d="M85 235H219" stroke="#AAAAAA" stroke-width="10"/>
<path d="M152 197V280" stroke="#747474" stroke-width="10"/>
<path d="M172 199V291" stroke="#747474" stroke-width="10"/>
<path d="M192 197V285" stroke="#747474" stroke-width="10"/>
<path d="M243 140V235" stroke="#747474" stroke-width="10"/>
<path d="M263 108V215" stroke="#747474" stroke-width="10"/>
<path d="M283 95V192" stroke="#747474" stroke-width="10"/>
<path d="M176 195H281" stroke="#AAAAAA" stroke-width="10"/>
<path d="M177 215H238" stroke="#AAAAAA" stroke-width="10"/>
<path d="M214 155H288" stroke="#AAAAAA" stroke-width="10"/>
<path d="M256 115H303" stroke="#AAAAAA" stroke-width="10"/>
<path d="M107 255H222" stroke="#AAAAAA" stroke-width="10"/>
<path d="M127 275H177" stroke="#AAAAAA" stroke-width="10"/>
<path d="M72 170V223" stroke="black" stroke-width="10"/>
<path d="M306 99V172" stroke="black" stroke-width="10"/>
<path d="M67 175H130.008" stroke="black" stroke-width="10"/>
<path d="M274 95H311" stroke="black" stroke-width="10"/>
<path d="M144 295H183" stroke="black" stroke-width="10"/>
<path d="M70.5355 219.464L147.536 296.464" stroke="black" stroke-width="10"/>
<path d="M126.536 173.464L165.536 212.464" stroke="black" stroke-width="10"/>
<path d="M158.464 212.464L277.464 93.4645" stroke="black" stroke-width="10"/>
<path d="M179.464 296.464L307.464 168.464" stroke="black" stroke-width="10"/>
</g>
<path d="M413.086 323.189L428.379 319.586V222.379L413.086 218.775V208.932L462.568 207.965V218.775L447.275 222.379V319.586L462.568 323.189V334H413.086V323.189ZM493.242 222.379L477.949 218.775V208.932L512.139 207.965H531.035C544.336 207.965 554.561 211.275 561.709 217.896C568.857 224.518 572.432 233.512 572.432 244.879C572.432 258.707 568.184 269.225 559.688 276.432C551.25 283.639 539.297 287.242 523.828 287.242H512.139V319.586L527.432 323.189V334H477.949V323.189L493.242 319.586V222.379ZM523.828 272.828C533.672 272.828 541.084 270.66 546.064 266.324C551.045 261.988 553.535 255.748 553.535 247.604C553.535 240.162 551.484 234.098 547.383 229.41C543.34 224.723 537.598 222.379 530.156 222.379H512.139V272.828H523.828ZM669.287 225.104C668.76 224.869 667.471 224.488 665.42 223.961C663.428 223.375 660.703 222.818 657.246 222.291C653.848 221.764 650.156 221.5 646.172 221.5C634.043 221.5 624.697 225.924 618.135 234.771C611.631 243.561 608.379 256.246 608.379 272.828C608.379 288.414 611.895 300.104 618.926 307.896C625.957 315.689 635.361 319.586 647.139 319.586C652.764 319.586 658.242 318.502 663.574 316.334C668.906 314.166 673.477 311.822 677.285 309.303C681.152 306.783 683.086 305.406 683.086 305.172L690.293 316.861C690.293 317.213 688.125 319.059 683.789 322.398C679.512 325.68 674.033 328.727 667.354 331.539C660.674 334.352 653.32 335.758 645.293 335.758C627.07 335.758 612.92 330.426 602.842 319.762C592.764 309.098 587.725 293.746 587.725 273.707C587.725 260.055 590.186 248.16 595.107 238.023C600.029 227.828 607.002 219.977 616.025 214.469C625.107 208.961 635.771 206.207 648.018 206.207C653.877 206.207 659.795 206.881 665.771 208.229C671.807 209.518 677.109 210.982 681.68 212.623C686.25 214.205 688.535 215.055 688.535 215.172L687.656 245.758H674.121L669.287 225.104ZM734.414 249.801C738.281 246.52 743.027 243.531 748.652 240.836C754.277 238.141 760.02 236.793 765.879 236.793C775.488 236.793 782.695 239.664 787.5 245.406C792.305 251.09 794.707 259.029 794.707 269.225V319.586L808.242 324.068V334H765V324.068L776.689 319.762V270.982C776.689 264.479 775.488 259.703 773.086 256.656C770.684 253.609 766.67 252.086 761.045 252.086C756.475 252.086 752.197 253.17 748.213 255.338C744.287 257.506 741.006 259.85 738.369 262.369C735.732 264.889 734.414 266.266 734.414 266.5V319.586L746.104 324.068V334H701.104V324.068L716.396 319.586V209.811L701.104 206.207V196.275L734.414 195.396V249.801ZM839.795 289C839.795 298.844 842.197 306.725 847.002 312.643C851.807 318.502 858.105 321.432 865.898 321.432C871.172 321.432 876.064 320.699 880.576 319.234C885.088 317.77 888.809 316.188 891.738 314.488C894.668 312.73 896.133 311.734 896.133 311.5L902.461 320.816C902.461 321.051 900.498 322.516 896.572 325.211C892.705 327.848 887.9 330.279 882.158 332.506C876.475 334.674 870.439 335.758 864.053 335.758C849.873 335.758 839.121 331.48 831.797 322.926C824.531 314.371 820.898 302.477 820.898 287.242C820.898 277.75 822.744 269.166 826.436 261.49C830.186 253.814 835.4 247.779 842.08 243.385C848.818 238.99 856.465 236.793 865.02 236.793C890.215 236.793 902.812 250.885 902.812 279.068C902.812 281.002 902.695 282.936 902.461 284.869C902.227 286.803 902.051 288.062 901.934 288.648L839.795 289ZM883.74 275.465C883.74 268.141 882.158 262.223 878.994 257.711C875.889 253.141 870.908 250.855 864.053 250.855C857.08 250.855 851.543 253.199 847.441 257.887C843.398 262.574 841.084 268.434 840.498 275.465H883.74ZM981.914 252.965C981.094 252.73 979.131 252.379 976.025 251.91C972.92 251.441 969.492 251.207 965.742 251.207C957.129 251.207 950.479 253.99 945.791 259.557C941.104 265.123 938.76 273.443 938.76 284.518C938.76 296.529 941.221 305.699 946.143 312.027C951.064 318.297 957.891 321.432 966.621 321.432C971.66 321.432 976.26 320.611 980.42 318.971C984.58 317.33 987.979 315.602 990.615 313.785C993.252 311.91 994.57 310.855 994.57 310.621L1000.9 321.432C1000.9 321.666 999.023 323.043 995.273 325.562C991.582 328.082 987.041 330.426 981.65 332.594C976.318 334.703 970.723 335.758 964.863 335.758C950.215 335.758 939.053 331.422 931.377 322.75C923.701 314.078 919.863 301.92 919.863 286.275C919.863 276.666 921.768 268.111 925.576 260.611C929.443 253.111 934.893 247.281 941.924 243.121C948.955 238.902 957.188 236.793 966.621 236.793C971.426 236.793 976.113 237.35 980.684 238.463C985.254 239.518 988.975 240.631 991.846 241.803C994.717 242.916 996.533 243.648 997.295 244L996.328 268.258H984.639L981.914 252.965ZM1071.04 251.91L1062.95 249.361V239.518L1102.5 238.639V249.361L1089.76 251.559H1089.58L1071.04 279.068L1094.24 319.586H1094.41L1107.95 324.068V334H1083.6L1057.85 288.121H1042.21V319.586L1053.9 324.068V334H1008.9V324.068L1024.19 319.586V209.811L1008.9 206.207V196.275L1042.21 195.396V274.586H1057.5L1071.04 251.91ZM1147.32 251.734C1150.72 248.043 1154.74 244.645 1159.37 241.539C1164.05 238.375 1169.12 236.793 1174.57 236.793C1177.21 236.793 1179.7 236.998 1182.04 237.408C1184.44 237.818 1186.41 238.258 1187.93 238.727C1189.45 239.137 1190.39 239.4 1190.74 239.518L1189.86 265.621H1178.09L1175.45 252.086C1169.47 252.086 1164.32 253.521 1159.98 256.393C1155.64 259.264 1152.1 262.516 1149.35 266.148V319.586L1167.36 324.068V334H1116.04V324.068L1131.33 319.586V252.965L1116.04 249.361V239.518L1145.74 238.639L1147.32 251.734Z" fill="white"/>
<defs>
<clipPath id="clip0_0_1">
<rect width="380" height="380" fill="white"/>
</clipPath>
</defs>
</svg>
