<svg width="380" height="380" viewBox="0 0 380 380" fill="none" xmlns="http://www.w3.org/2000/svg">
<circle cx="190" cy="190" r="190" fill="#D9D9D9"/>
<line x1="248" y1="135" x2="303" y2="135" stroke="#AAAAAA" stroke-width="10"/>
<line x1="223" y1="150" x2="223" y2="250" stroke="#747474" stroke-width="10"/>
<line x1="223" y1="150" x2="223" y2="250" stroke="#747474" stroke-width="10"/>
<line x1="218" y1="175" x2="298" y2="175" stroke="#AAAAAA" stroke-width="10"/>
<line x1="87" y1="195" x2="149" y2="195" stroke="#AAAAAA" stroke-width="10"/>
<line x1="92" y1="178" x2="92" y2="243" stroke="#747474" stroke-width="10"/>
<line x1="75" y1="215" x2="147" y2="215" stroke="#AAAAAA" stroke-width="10"/>
<line x1="112" y1="180" x2="112" y2="240" stroke="#747474" stroke-width="10"/>
<line x1="132" y1="180" x2="132" y2="276" stroke="#747474" stroke-width="10"/>
<line x1="85" y1="235" x2="219" y2="235" stroke="#AAAAAA" stroke-width="10"/>
<line x1="152" y1="197" x2="152" y2="280" stroke="#747474" stroke-width="10"/>
<line x1="172" y1="199" x2="172" y2="291" stroke="#747474" stroke-width="10"/>
<line x1="192" y1="197" x2="192" y2="285" stroke="#747474" stroke-width="10"/>
<line x1="243" y1="140" x2="243" y2="235" stroke="#747474" stroke-width="10"/>
<line x1="263" y1="108" x2="263" y2="215" stroke="#747474" stroke-width="10"/>
<line x1="283" y1="95" x2="283" y2="192" stroke="#747474" stroke-width="10"/>
<line x1="176" y1="195" x2="281" y2="195" stroke="#AAAAAA" stroke-width="10"/>
<line x1="177" y1="215" x2="238" y2="215" stroke="#AAAAAA" stroke-width="10"/>
<line x1="214" y1="155" x2="288" y2="155" stroke="#AAAAAA" stroke-width="10"/>
<line x1="256" y1="115" x2="303" y2="115" stroke="#AAAAAA" stroke-width="10"/>
<line x1="107" y1="255" x2="222" y2="255" stroke="#AAAAAA" stroke-width="10"/>
<line x1="127" y1="275" x2="177" y2="275" stroke="#AAAAAA" stroke-width="10"/>
<line x1="72" y1="170" x2="72" y2="223" stroke="black" stroke-width="10"/>
<line x1="306" y1="99" x2="306" y2="172" stroke="black" stroke-width="10"/>
<line x1="67" y1="175" x2="130.008" y2="175" stroke="black" stroke-width="10"/>
<line x1="274" y1="95" x2="311" y2="95" stroke="black" stroke-width="10"/>
<line x1="144" y1="295" x2="183" y2="295" stroke="black" stroke-width="10"/>
<line x1="70.5355" y1="219.464" x2="147.536" y2="296.464" stroke="black" stroke-width="10"/>
<line x1="126.536" y1="173.464" x2="165.536" y2="212.464" stroke="black" stroke-width="10"/>
<line x1="158.464" y1="212.464" x2="277.464" y2="93.4645" stroke="black" stroke-width="10"/>
<line x1="179.464" y1="296.464" x2="307.464" y2="168.464" stroke="black" stroke-width="10"/>
</svg>
